<svg width="23" height="126" viewBox="0 0 23 126" fill="none" xmlns="http://www.w3.org/2000/svg">
  <path d="M0.0159912 125.383V86.1937C0.0159912 82.8671 0.991047 80.2287 2.94114 78.2786C5.00595 76.2138 7.70168 75.1814 11.0283 75.1814C14.4697 75.1814 17.1654 76.2138 19.1155 78.2786C21.1803 80.2287 22.2127 82.8671 22.2127 86.1937V125.383H0.0159912Z" fill="#1F0F4F"/>
  <path d="M11.0283 66.4535C7.70167 66.4535 5.00595 65.4211 2.94114 63.3563C0.991045 61.2915 0.0159912 58.5958 0.0159912 55.2692V42.9064C0.0159912 39.5797 0.991045 36.9414 2.94114 34.9913C5.00595 32.9264 7.70167 31.894 11.0283 31.894C14.4697 31.894 17.1654 32.9264 19.1155 34.9913C21.1803 36.9414 22.2127 39.5797 22.2127 42.9064V55.2692C22.2127 58.5958 21.1803 61.2915 19.1155 63.3563C17.1654 65.4211 14.4697 66.4535 11.0283 66.4535Z" fill="#25AADF"/>
  <path d="M11.0288 22.8061C7.70216 22.8061 5.00644 21.7737 2.94163 19.7089C0.991533 17.644 0.0164795 14.9483 0.0164795 11.6217C0.0164795 8.29505 0.991533 5.65669 2.94163 3.70659C5.00644 1.64178 7.70216 0.609375 11.0288 0.609375C14.4701 0.609375 17.1659 1.64178 19.116 3.70659C21.1808 5.65669 22.2132 8.29505 22.2132 11.6217C22.2132 14.9483 21.1808 17.644 19.116 19.7089C17.1659 21.7737 14.4701 22.8061 11.0288 22.8061Z" fill="#FF8000"/>
</svg>
